<svg width="150" height="440" viewBox="0 0 150 440" fill="none" xmlns="http://www.w3.org/2000/svg">
<path d="M54.1548 253.977L35.595 45.9112C33.3156 30.2819 39.5022 0 74.6682 0C109.834 0 115.37 31.5843 113.742 47.8649C108.206 112.662 95.1818 244.599 95.1818 253.977C95.1818 263.354 99.7403 269.606 102.02 272.537C111.137 282.956 133.278 305.749 140.116 312.587C147.97 320.441 149.559 333.752 148.908 338.961L137.186 438.599H116.672V363.382C116.672 357.912 113.416 353.288 111.788 351.66C105.276 346.451 90.493 334.663 83.4597 329.193C76.4265 323.723 69.4585 326.914 66.8536 329.193C59.6901 334.729 43.9957 346.971 38.5254 351.66C33.055 356.349 32.3387 361.429 32.6644 363.382L32.6644 438.599H13.1277L0.428923 338.961C-1.91548 324.895 5.96443 314.866 9.22055 312.587C18.6633 302.819 37.5486 283.087 45.3633 274.49C53.178 265.894 54.4804 257.233 54.1548 253.977Z" fill="#3DCC8E"/>
<path d="M62.9465 403.502C62.9465 401.845 64.2897 400.502 65.9465 400.502H83.3906C85.0474 400.502 86.3906 401.845 86.3906 403.502V439.575H62.9465V403.502Z" fill="#3DCC8E"/>
</svg>
